<svg width="960" height="720" xmlns="http://www.w3.org/2000/svg" xmlns:xlink="http://www.w3.org/1999/xlink" overflow="hidden"><defs><clipPath id="clip0"><rect x="0" y="0" width="960" height="720"/></clipPath><linearGradient x1="125.181" y1="-60.855" x2="834.819" y2="780.855" gradientUnits="userSpaceOnUse" spreadMethod="reflect" id="fill1"><stop offset="0" stop-color="#070A13"/><stop offset="0.25" stop-color="#070A13"/><stop offset="0.5" stop-color="#5C7EE6"/><stop offset="0.75" stop-color="#9DBBF3"/><stop offset="1" stop-color="#F1F4FD"/></linearGradient></defs><g clip-path="url(#clip0)"><rect x="0" y="0" width="960" height="720" fill="#FFFFFF" fill-opacity="0"/><path d="M448.249 327.678 445.103 333.991C431.692 365.115 424.987 397.124 424.987 430.019 424.987 475.313 434.982 514.154 454.971 546.543 474.96 578.932 504.121 603.35 542.454 619.797 580.787 636.245 627.281 644.468 681.934 644.468 742.154 644.468 788.331 634.41 820.465 614.294 852.6 594.177 868.667 565.394 868.667 527.945 868.667 511.75 864.998 497.643 857.66 485.624 850.322 473.605 840.644 464.495 828.626 458.296 816.607 452.097 803.766 448.997 790.102 448.997 779.981 448.997 769.038 450.705 757.272 454.121 745.507 457.537 728.744 464.685 706.984 475.566 693.32 482.777 680.262 488.53 667.808 492.824L663.498 494.163 661.655 495.232C654.07 498.947 646.16 502.167 637.925 504.892 621.455 510.341 603.19 513.065 583.129 513.065 559.601 513.065 540.654 505.82 526.29 491.331 511.925 476.842 504.743 457.461 504.743 433.189 504.743 408.173 510.563 373.003 522.203 327.678ZM542.951 239.001 538.327 240.146C525.074 244.638 512.534 251.375 500.705 260.358L489.172 270.464 535.949 270.464ZM591.302 55.7276C573.966 58.2044 559.353 61.9815 547.465 67.0588 535.577 72.1363 523.937 79.3189 512.544 88.6068 501.152 97.8948 489.821 110.155 478.552 125.387 467.283 140.619 455.519 160.248 443.26 184.272 431 208.297 418.555 237.028 405.924 270.464L443.621 270.464 458.624 250.821C472.129 235.481 487.484 222.402 504.69 211.585 517.594 203.472 531.05 196.88 545.057 191.809L554.102 188.901 561.582 155.294C565.793 136.223 570.87 117.771 576.814 99.9381 582.758 82.1052 588.33 68.6068 593.531 59.4427ZM669.317 0 693.093 0 706.838 27.8638C697.427 50.6501 689.749 74.6749 683.805 99.9381L664.558 184.184 670.074 185.3C675.387 186.566 680.542 187.989 685.54 189.57 695.534 192.733 709.261 197.731 726.72 204.563L748.353 213.672C756.197 216.962 763.598 219.808 770.556 222.212 777.514 224.616 784.536 226.514 791.621 227.906 798.705 229.297 806.17 229.993 814.013 229.993 829.195 229.993 842.162 226.451 852.916 219.366 863.67 212.28 874.739 200.008 886.125 182.549L907 197.731C890.806 226.071 871.64 247.769 849.5 262.825 827.36 277.88 803.007 285.408 776.439 285.408 762.017 285.408 746.709 283.194 730.515 278.766 714.321 274.338 695.471 267.316 673.964 257.701 665.361 253.905 657.976 250.742 651.808 248.212L650.086 247.526 629.567 337.338C624.861 357.399 621.146 375.975 618.422 393.065 615.697 410.155 614.335 422.291 614.335 429.474 614.335 433.56 614.722 437.167 615.496 440.294L616.096 441.661 629.558 435.713C634.365 433.182 643.221 428.121 656.126 420.53 673.584 410.662 690.79 403.387 707.743 398.706 724.695 394.025 741.901 391.684 759.36 391.684 785.421 391.684 809.396 397.377 831.282 408.764 853.169 420.151 870.122 435.966 882.14 456.209 894.159 476.452 900.168 499.478 900.168 525.288 900.168 561.978 890.743 595.379 871.893 625.491 853.042 655.602 825.779 678.882 790.102 695.329 754.426 711.776 712.171 720 663.337 720 624.877 720 588.821 713.168 555.169 699.504 522.022 686.093 493.43 666.989 469.393 642.191 443.331 615.622 423.849 583.107 410.944 544.645 399.811 511.244 394.245 474.301 394.245 433.815 394.245 398.516 399.76 365.281 410.79 334.11L413.505 327.678 384.006 327.678C369.889 365.573 356.019 395.356 342.398 417.028 328.776 438.7 313.483 456.842 296.518 471.455 279.552 486.068 261.163 496.657 241.35 503.22 221.537 509.783 198.875 513.065 173.366 513.065 135.72 513.065 106.248 504.273 84.9489 486.687 63.6496 469.102 53 445.077 53 414.613 53 395.294 58.944 377.214 70.8319 360.372 82.7199 343.529 99.1896 330.031 120.241 319.876 141.293 309.721 163.459 304.644 186.74 304.644 212.992 304.644 237.883 315.79 261.411 338.081L204.943 375.604C197.761 367.183 190.826 360.619 184.139 355.913 177.452 351.207 170.27 348.855 162.592 348.855 153.429 348.855 145.875 352.694 139.931 360.372 133.987 368.05 131.015 378.576 131.015 391.951 131.015 402.601 133.43 413.127 138.259 423.529 143.088 433.932 150.518 442.601 160.549 449.536 170.579 456.471 182.529 459.938 196.399 459.938 207.296 459.938 216.893 458.019 225.19 454.18 233.486 450.341 241.536 444.458 249.337 436.533 257.139 428.607 265.25 417.647 273.67 403.653 282.091 389.66 290.883 371.889 300.047 350.341L342.026 251.517C371.498 182.167 401.714 129.907 432.672 94.7368 463.63 59.5666 498.18 34.9846 536.32 20.9907 574.461 6.99694 618.793 0 669.317 0Z" fill="url(#fill1)" fill-rule="evenodd"/></g></svg>